<svg width="186" height="52" viewBox="0 0 186 52" fill="none" xmlns="http://www.w3.org/2000/svg">
<g filter="url(#filter0_dd_3768_498)">
<path fill-rule="evenodd" clip-rule="evenodd" d="M96.978 22.3399C110.706 22.2402 120.679 22.1635 120.989 22.1492C121.754 22.1139 122.255 21.5445 122.409 21.2642C122.489 21.1587 122.651 20.9252 122.877 20.5664C122.945 20.4591 123.018 20.3406 123.097 20.211C123.285 19.902 123.503 19.5298 123.744 19.0955C124.426 17.8696 123.439 17.6716 122.861 17.7258C122.336 17.7288 121.801 17.732 121.257 17.7352C121.1 17.7361 120.942 17.737 120.783 17.738C119.789 17.7438 118.765 17.7499 117.713 17.7561C117.134 17.7596 116.546 17.7631 115.951 17.7666C110.848 17.7971 105.175 17.8316 99.2359 17.8686C98.3896 17.8739 97.538 17.8792 96.6819 17.8846C83.6796 17.9661 69.6399 18.058 57.6606 18.1442C55.2428 18.1616 52.909 18.1787 50.6845 18.1955C50.406 18.1976 50.1292 18.1997 49.8542 18.2018C46.2348 18.2293 42.9211 18.2558 40.027 18.2807C40.0123 18.2808 39.9975 18.2809 39.9827 18.281C36.4173 18.3117 33.4915 18.3398 31.4192 18.3643C31.2548 18.3663 31.0957 18.3682 30.9421 18.3701C29.6858 18.3856 28.7962 18.3996 28.332 18.4117C27.809 18.4253 27.3144 18.4617 26.8472 18.5173C25.0613 18.7298 23.6754 19.2233 22.6333 19.8042C22.4948 19.8814 22.3624 19.9601 22.236 20.0399C21.826 20.2988 21.4784 20.569 21.1888 20.8352C20.6457 21.3345 20.3066 21.8196 20.1418 22.1883C20.1418 22.1883 19.3666 23.6051 18.5353 25.244C18.4872 25.3389 18.4389 25.4345 18.3906 25.5306C17.4886 27.3238 16.5699 29.2953 16.5403 29.9403C15.7599 34.4069 20.3027 35.0273 22.6717 34.7792C23.9113 34.7759 25.3716 34.7714 26.9651 34.7657C27.5482 34.7636 28.1491 34.7613 28.7636 34.7589C29.0951 34.7576 29.4304 34.7563 29.7691 34.7549C30.1927 34.7531 30.6215 34.7513 31.054 34.7494C33.2049 34.74 35.4491 34.7287 37.6243 34.7158C38.0094 34.7135 38.3923 34.7111 38.7721 34.7087C40.3733 34.6985 41.9199 34.6874 43.3445 34.6753C43.3651 34.6751 43.3878 34.6749 43.4082 34.6748C43.7324 34.672 44.0502 34.6692 44.3608 34.6663C44.3644 34.6663 44.368 34.6663 44.3715 34.6662C45.9308 34.6518 47.3079 34.6362 48.4012 34.6193C49.2432 34.6063 49.9169 34.5926 50.3758 34.5782C51.2971 34.5492 52.1689 34.3369 52.9717 34.0138C55.2619 33.0923 56.9907 31.2694 57.7045 30.2309C56.4032 30.2357 54.9242 30.2412 53.3349 30.2471C52.3403 30.2508 51.3026 30.2547 50.2383 30.2586C48.1329 30.2665 45.9235 30.2748 43.7383 30.283C42.6953 30.2869 41.6579 30.2909 40.64 30.2947C39.9521 30.2973 39.2731 30.2999 38.6073 30.3024C37.4376 30.3069 36.3085 30.3112 35.2435 30.3153C33.6728 30.3214 32.241 30.327 31.0239 30.3318C30.7421 30.333 30.4719 30.334 30.2141 30.3351C29.7994 30.3368 29.4168 30.3383 29.0701 30.3397C28.9801 30.3401 28.8924 30.3405 28.8072 30.3408C28.7528 30.3411 28.6994 30.3413 28.647 30.3415C27.708 30.3454 27.1027 30.3482 26.933 30.3494C25.8199 30.3575 25.9826 29.4856 26.203 29.0486C26.3902 28.6398 26.6399 28.0983 26.9124 27.5134C27.1153 27.0778 27.3308 26.6182 27.5426 26.1711C27.6398 25.9658 27.7363 25.7632 27.8303 25.5668C28.074 25.0579 28.3016 24.5909 28.4855 24.2276C28.6008 24 28.6989 23.8132 28.773 23.6824C29.244 22.8509 30.4355 22.7493 30.9724 22.8024C34.3769 22.7791 38.1744 22.7531 42.2311 22.7251C43.6436 22.7154 45.0876 22.7054 46.5573 22.6952C47.6893 22.6874 48.8366 22.6795 49.9966 22.6714C50.7857 22.666 51.5806 22.6605 52.3807 22.6549C54.1247 22.6428 55.8929 22.6305 57.6768 22.6181C70.7678 22.527 84.7034 22.4289 96.1588 22.3458C96.4333 22.3439 96.7064 22.3419 96.978 22.3399ZM12.9711 17.4002C12.9711 17.4002 12.7109 17.9273 12.2802 18.8107C10.4835 22.4954 5.71929 32.3779 4.49256 36.0485C3.09351 40.9439 8.38869 43.6836 12.761 43.5996C14.4067 43.568 18.5899 43.5537 23.751 43.536C24.8724 43.5322 26.0399 43.5282 27.2376 43.5238C28.4151 43.5195 29.6216 43.5149 30.8421 43.5097C37.848 43.4797 45.3135 43.4314 50.3642 43.3268C58.3758 42.9849 62.7604 39.6221 65.3058 36.0624C65.468 35.8355 65.6228 35.6078 65.7706 35.3801C66.3161 34.5392 66.7661 33.6973 67.1439 32.8914C67.4413 32.2568 67.6939 31.6445 67.9131 31.0723C68.0152 30.806 68.11 30.5483 68.1988 30.3011L103.154 43.0329L126.748 42.8617L91.6747 29.589L121.505 29.3726C121.87 29.3699 122.227 29.3519 122.578 29.3187C123.694 29.2131 124.743 28.9547 125.725 28.5531C126.037 28.4254 126.343 28.2832 126.641 28.1269C126.999 27.9397 127.348 27.7322 127.687 27.5049C127.894 27.3658 128.098 27.2194 128.298 27.0656C128.318 27.0506 128.337 27.0356 128.357 27.0205C128.629 26.8086 128.895 26.5831 129.155 26.3445C129.981 25.5842 130.74 24.6897 131.435 23.671C132.711 21.7979 133.766 19.5052 134.608 16.8563C134.63 16.7886 134.651 16.7206 134.672 16.6524C134.682 16.6206 134.692 16.5887 134.702 16.5568C134.766 16.3477 134.823 16.1438 134.872 15.945C134.895 15.849 134.917 15.7541 134.937 15.6604C136.135 10.0547 131.061 8.65344 128.232 8.67266C126.587 8.67868 124.845 8.68525 123.022 8.69237C122.474 8.69451 121.918 8.6967 121.355 8.69894C120.953 8.70054 120.547 8.70216 120.138 8.70381C117.901 8.71282 115.561 8.72254 113.142 8.73295C112.947 8.73379 112.753 8.73462 112.557 8.73547C111.844 8.73855 111.123 8.7417 110.397 8.7449C109.926 8.74697 109.454 8.74906 108.978 8.75118C108.872 8.75165 108.766 8.75213 108.66 8.7526C108.628 8.75275 108.596 8.75289 108.563 8.75303C105.677 8.76594 102.703 8.77972 99.6764 8.79428C96.9924 8.80719 94.2669 8.82073 91.5241 8.83484C91.1252 8.83689 90.7258 8.83895 90.3262 8.84103C89.717 8.8442 89.1072 8.84739 88.497 8.85061C84.9511 8.86932 81.3912 8.88896 77.8688 8.90942C77.8609 8.90947 77.8531 8.90951 77.8452 8.90956C77.2683 8.91291 76.6924 8.91628 76.1178 8.91968C65.4423 8.98275 55.1934 9.05329 46.8244 9.1284C40.5836 9.18441 35.3881 9.24297 31.8406 9.30289L31.8376 9.30294C30.678 9.32253 29.6945 9.34227 28.9084 9.36211C28.8933 9.36249 28.8783 9.36287 28.8634 9.36325C28.5009 9.37249 28.1812 9.38175 27.9065 9.39103C27.7881 9.39503 27.678 9.39904 27.5764 9.40305C20.2343 9.562 15.233 13.7098 13.4495 16.5129C13.4418 16.5251 13.4341 16.5372 13.4265 16.5492C13.2367 16.8511 13.0845 17.137 12.9711 17.4002ZM110.561 7.75638C110.663 7.75514 110.765 7.7539 110.867 7.75267C111.452 7.74557 112.032 7.73854 112.604 7.7316C115.446 7.69714 118.126 7.66474 120.6 7.63492C120.851 7.63189 121.1 7.62889 121.347 7.62591C121.892 7.61934 122.427 7.61291 122.951 7.60661C124.863 7.58361 126.629 7.56246 128.224 7.54343L128.228 7.54339C129.337 7.53016 130.364 7.51797 131.301 7.50691C131.316 7.50673 131.331 7.50655 131.346 7.50637C134.932 7.46402 137.182 7.43838 137.65 7.43498C140.501 7.41429 139.98 9.98855 139.363 11.2783C138.983 12.0778 138.403 13.2977 137.704 14.7716C137.57 15.0529 137.432 15.3434 137.291 15.642C137.265 15.6971 137.238 15.7525 137.212 15.8082C137.01 16.2337 136.801 16.6749 136.586 17.1284C136.522 17.262 136.459 17.3966 136.394 17.5322C135.907 18.5595 135.393 19.644 134.87 20.7494C134.815 20.8656 134.76 20.9821 134.704 21.0987C134.134 22.3026 133.555 23.5268 132.988 24.7253C132.494 25.7713 132.009 26.7977 131.549 27.7739C131.49 27.8973 131.433 28.0199 131.375 28.1417C131.251 28.4045 131.129 28.6633 131.009 28.9174C130.272 30.4823 129.62 31.8711 129.121 32.9388C128.823 33.5765 128.58 34.0997 128.407 34.4773C128.385 34.5269 128.363 34.574 128.343 34.6185C128.337 34.6313 128.331 34.6439 128.325 34.6563C128.273 34.7709 128.23 34.8671 128.196 34.9434C128.129 35.2199 128.076 35.4873 128.035 35.7457L128.034 35.7482C127.833 37.0208 127.939 38.0767 128.254 38.9485C128.899 40.7309 130.419 41.7438 131.984 42.2651C133 42.6035 134.035 42.7348 134.861 42.735L181.25 42.3984C177.265 41.6652 171.725 40.7884 166.039 39.9306C165.918 39.9123 165.797 39.8941 165.676 39.8758C162.614 39.4147 159.518 38.9601 156.608 38.5372C156.128 38.4674 155.652 38.3985 155.183 38.3305C154.911 38.2911 154.641 38.252 154.373 38.2132C153.597 38.101 152.839 37.9918 152.106 37.886C151.443 37.7905 150.8 37.6979 150.179 37.6085C149.166 37.4626 148.212 37.3253 147.334 37.1985C144.527 36.7929 142.486 36.4933 141.702 36.3561C138.459 35.7889 138.905 33.5765 139.534 32.5413L150.126 8.03729C150.951 3.16629 146.926 -0.189677 140.358 0.340169L77.5499 4.91386L28.8589 8.74203L31.8334 8.72045C36.3654 8.66462 41.5126 8.60128 47.038 8.53336C56.1494 8.42136 66.289 8.29691 76.3943 8.17318C76.8595 8.16749 77.3246 8.16179 77.7895 8.1561C77.7959 8.15602 77.8023 8.15595 77.8086 8.15587C80.6551 8.12102 83.4949 8.08628 86.3042 8.05195C87.7044 8.03483 89.0971 8.01782 90.4792 8.00094C90.8261 7.9967 91.1724 7.99248 91.518 7.98826C94.413 7.95291 97.2583 7.91821 100.026 7.88448C103.263 7.84505 106.394 7.80696 109.376 7.77076C109.774 7.76593 110.169 7.76114 110.561 7.75638Z" fill="white"/>
</g>
<defs>
<filter id="filter0_dd_3768_498" x="0.263672" y="0.285156" width="184.986" height="51.3164" filterUnits="userSpaceOnUse" color-interpolation-filters="sRGB">
<feFlood flood-opacity="0" result="BackgroundImageFix"/>
<feColorMatrix in="SourceAlpha" type="matrix" values="0 0 0 0 0 0 0 0 0 0 0 0 0 0 0 0 0 0 127 0" result="hardAlpha"/>
<feOffset dy="4"/>
<feGaussianBlur stdDeviation="2"/>
<feComposite in2="hardAlpha" operator="out"/>
<feColorMatrix type="matrix" values="0 0 0 0 0 0 0 0 0 0 0 0 0 0 0 0 0 0 0.25 0"/>
<feBlend mode="normal" in2="BackgroundImageFix" result="effect1_dropShadow_3768_498"/>
<feColorMatrix in="SourceAlpha" type="matrix" values="0 0 0 0 0 0 0 0 0 0 0 0 0 0 0 0 0 0 127 0" result="hardAlpha"/>
<feOffset dy="4"/>
<feGaussianBlur stdDeviation="2"/>
<feComposite in2="hardAlpha" operator="out"/>
<feColorMatrix type="matrix" values="0 0 0 0 0 0 0 0 0 0 0 0 0 0 0 0 0 0 0.25 0"/>
<feBlend mode="normal" in2="effect1_dropShadow_3768_498" result="effect2_dropShadow_3768_498"/>
<feBlend mode="normal" in="SourceGraphic" in2="effect2_dropShadow_3768_498" result="shape"/>
</filter>
</defs>
</svg>
